<svg width="53" height="53" viewBox="0 0 53 53" fill="none" xmlns="http://www.w3.org/2000/svg">
<rect width="52.5159" height="52.5159" rx="26.258" fill="#292B30"/>
<path d="M15.6385 13.0978C14.3658 13.371 13.3663 14.3829 13.0931 15.6681C12.969 16.2765 12.969 32.3313 13.0931 32.9397C13.4346 34.5352 14.8004 35.5969 16.5325 35.6031H16.9795V36.0501C16.9858 37.7822 18.0474 39.148 19.6429 39.4895C19.9782 39.5578 21.2012 39.5764 26.3914 39.5764C30.6193 39.5764 32.8481 39.5516 33.0964 39.5081C33.2951 39.4709 33.6986 39.3281 33.9904 39.1915C34.5057 38.9432 34.5554 38.8997 36.7283 36.7268C38.6963 34.7525 38.9571 34.4669 39.1682 34.0696C39.5903 33.2501 39.5779 33.4798 39.5779 26.4147C39.5779 21.119 39.5593 19.9829 39.4848 19.629C39.1496 18.0397 37.7837 16.9842 36.0578 16.978H35.6046V16.5248C35.5984 14.7989 34.543 13.4331 32.9536 13.0978C32.3514 12.9674 16.2221 12.9674 15.6385 13.0978ZM32.8232 14.4823C33.3882 14.6747 33.9656 15.2645 34.1146 15.786C34.1456 15.9102 34.1953 16.233 34.2139 16.4938L34.2574 16.978H27.155C21.3068 16.978 19.9782 16.9967 19.6429 17.065C18.3454 17.3443 17.3458 18.3439 17.0665 19.6414C16.9982 19.9767 16.9795 21.3053 16.9795 27.1535V34.2559L16.5015 34.2124C16.2345 34.1938 15.9117 34.1441 15.7875 34.1131C15.266 33.9641 14.6763 33.3805 14.4838 32.8217C14.3783 32.5175 14.3348 16.8042 14.4341 16.1523C14.5769 15.2149 15.1729 14.5878 16.0545 14.4388C16.247 14.4078 19.8788 14.3892 24.4916 14.3954C30.8055 14.4016 32.6432 14.4202 32.8232 14.4823ZM36.7966 18.4556C37.3491 18.6419 37.9141 19.2068 38.1003 19.7594C38.1562 19.9332 38.1811 21.4294 38.1997 26.1167L38.2183 32.2506H36.0143C33.4503 32.2506 33.3572 32.2692 32.8108 32.8093C32.2707 33.3557 32.2521 33.4488 32.2521 36.0128V38.2168L26.1244 38.1982C21.4309 38.1795 19.9347 38.1547 19.7609 38.0988C19.2083 37.9126 18.6434 37.3476 18.4571 36.7951C18.3516 36.4909 18.3081 20.7775 18.4075 20.1257C18.5503 19.1882 19.1463 18.5612 20.0278 18.4122C20.2203 18.3811 23.8522 18.3625 28.465 18.3687C34.7789 18.3749 36.6165 18.3935 36.7966 18.4556ZM35.7288 35.6962L33.649 37.776L33.6303 35.9632C33.6179 34.6967 33.6365 34.0944 33.6862 33.9703C33.829 33.635 33.9159 33.6226 35.946 33.6164H37.8086L35.7288 35.6962Z" fill="white"/>
<path d="M21.8468 21.8454C21.673 22.0192 21.6357 22.1061 21.6357 22.3172C21.6357 22.5283 21.673 22.6152 21.8468 22.789L22.0579 23.0001H28.2787H34.4994L34.7105 22.789C34.8844 22.6152 34.9216 22.5283 34.9216 22.3172C34.9216 22.1061 34.8844 22.0192 34.7105 21.8454L34.4994 21.6343H28.2787H22.0579L21.8468 21.8454Z" fill="white"/>
<path d="M21.8468 25.8188C21.673 25.9926 21.6357 26.0795 21.6357 26.2906C21.6357 26.5017 21.673 26.5886 21.8468 26.7624L22.0579 26.9735H28.2787H34.4994L34.7105 26.7624C34.8844 26.5886 34.9216 26.5017 34.9216 26.2906C34.9216 26.0795 34.8844 25.9926 34.7105 25.8188L34.4994 25.6077H28.2787H22.0579L21.8468 25.8188Z" fill="white"/>
<path d="M21.8468 29.792C21.673 29.9659 21.6357 30.0528 21.6357 30.2639C21.6357 30.4749 21.673 30.5619 21.8468 30.7357L22.0579 30.9468H26.292H30.5261L30.7372 30.7357C30.911 30.5619 30.9483 30.4749 30.9483 30.2639C30.9483 30.0528 30.911 29.9659 30.7372 29.792L30.5261 29.5809H26.292H22.0579L21.8468 29.792Z" fill="white"/>
<path d="M21.8468 33.7654C21.673 33.9392 21.6357 34.0262 21.6357 34.2372C21.6357 34.4483 21.673 34.5352 21.8468 34.7091L22.0579 34.9202H25.6401H29.2223L29.3962 34.7401C29.719 34.4235 29.719 34.051 29.3962 33.7344L29.2223 33.5543H25.6401H22.0579L21.8468 33.7654Z" fill="white"/>
</svg>
